<svg id="Layer_1" data-name="Layer 1" xmlns="http://www.w3.org/2000/svg" viewBox="0 0 391.23 172.77"><defs><style>.cls-1{fill:#231f20;stroke:#231f20;}.cls-1,.cls-2{stroke-miterlimit:10;stroke-width:8px;}.cls-2,.cls-3{fill:#ffd15c;}.cls-2{stroke:#ffd15c;}</style></defs><path class="cls-1" d="M365.27,514.8l15.55,53.3L395,518.56c1.51-5.19,2.64-8.73,3.36-10.62a13.81,13.81,0,0,1,4.11-5.42q3-2.58,8.26-2.58c3.55,0,6.34.86,8.35,2.58a14.64,14.64,0,0,1,4.23,5.59q1.23,3,3.41,10.45l14.16,49.54,15.73-53.3q1.57-5.77,2.53-8.35a11,11,0,0,1,3.24-4.54c1.51-1.31,3.7-2,6.55-2a10.48,10.48,0,0,1,7.43,3,9.3,9.3,0,0,1,3.14,7q0,3.68-2.7,11.1l-19.49,57.15q-2.54,7.26-3.93,10.49a15.71,15.71,0,0,1-4.42,5.77q-3,2.54-8.26,2.53-5.42,0-8.52-2.71a16.36,16.36,0,0,1-4.58-6.64c-1-2.62-2.07-6-3.24-10.22l-13.63-46.49-13.2,46.49q-2.61,9.69-5.68,14.63t-10.75,4.94a13.55,13.55,0,0,1-6.68-1.53,12.85,12.85,0,0,1-4.59-4.37,32.69,32.69,0,0,1-3.23-6.73q-1.4-3.88-2.19-6.16L345.08,521q-2.88-8-2.88-11.1a9.53,9.53,0,0,1,3.06-6.9,10.19,10.19,0,0,1,7.51-3.06q5.94,0,8,3.37T365.27,514.8Z" transform="translate(-338.2 -457.61)"/><path class="cls-2" d="M508,484.94a12.59,12.59,0,0,1-8.52-3.06q-3.54-3.06-3.54-8.65a10.76,10.76,0,0,1,3.63-8.35,12.21,12.21,0,0,1,8.43-3.27,12.52,12.52,0,0,1,8.22,3q3.59,3,3.58,8.65a10.92,10.92,0,0,1-3.5,8.61A12.07,12.07,0,0,1,508,484.94Z" transform="translate(-338.2 -457.61)"/><path class="cls-1" d="M566.09,513.14V516a41.73,41.73,0,0,1,13.76-12.19A36.7,36.7,0,0,1,597,499.94a34.26,34.26,0,0,1,16.87,4.11A26.13,26.13,0,0,1,625,515.67a27.54,27.54,0,0,1,3,9.44,97.08,97.08,0,0,1,.7,12.93v44.4c0,4.77-1.09,8.39-3.27,10.83a10.89,10.89,0,0,1-8.52,3.67,11,11,0,0,1-8.66-3.75Q605,589.42,605,582.44V542.67q0-11.79-3.27-18t-13.07-6.25a19.38,19.38,0,0,0-11.62,3.8,21.93,21.93,0,0,0-7.69,10.44q-1.76,5.34-1.75,19.93v29.89q0,7.24-3.36,10.88a11.36,11.36,0,0,1-8.7,3.62,10.79,10.79,0,0,1-8.47-3.75q-3.33-3.77-3.33-10.75v-69q0-6.83,3-10.18a10.26,10.26,0,0,1,8.12-3.37,11,11,0,0,1,5.68,1.49,10.63,10.63,0,0,1,4.07,4.45A15.71,15.71,0,0,1,566.09,513.14Z" transform="translate(-338.2 -457.61)"/><path class="cls-1" d="M519.77,513.49v69c0,4.77-1.14,8.39-3.41,10.83a11.27,11.27,0,0,1-8.65,3.67,10.8,10.8,0,0,1-8.52-3.75q-3.27-3.77-3.28-10.75V514.19q0-7.08,3.28-10.67a11.05,11.05,0,0,1,8.52-3.58,11.44,11.44,0,0,1,8.65,3.58Q519.77,507.11,519.77,513.49Z" transform="translate(-338.2 -457.61)"/><path class="cls-3" d="M433.76,630.23A1207.22,1207.22,0,0,1,658,609q32.1,0,64.17,1.64c9.65.49,9.62-14.51,0-15a1227.76,1227.76,0,0,0-228.11,9.65q-32.29,4.38-64.32,10.49c-9.47,1.8-5.46,16.26,4,14.47Z" transform="translate(-338.2 -457.61)"/></svg>